<svg xmlns="http://www.w3.org/2000/svg" viewBox="0 0 228.47 202.2"><defs><style>.cls-1{fill:#e45025;}</style></defs><title>Asset 5</title><g id="Layer_2" data-name="Layer 2"><g id="Layer_1-2" data-name="Layer 1"><path class="cls-1" d="M100.63,101.49H47.81c.89-10.82.31-16.95,6.68-31.8C62.86,50.16,96,22.23,96,22.23s-56.09,4.33-74.3,27.2a159.92,159.92,0,0,0-9.63,13.39C4.82,74.11,1.23,91.32.22,101.49c-.1.93-.17,1.81-.22,2.61v98.1H100.63Z"/><path class="cls-1" d="M228.47,101.49H175.65c.89-10.82.31-16.95,6.68-31.8,8.37-19.53,41.49-47.46,41.49-47.46s-56.09,4.33-74.3,27.2a159.92,159.92,0,0,0-9.63,13.39c-7.23,11.29-10.82,28.5-11.83,38.67-.1.93-.17,1.81-.22,2.61v98.1H228.47Z"/><path class="cls-1" d="M95.12,0H94.9V2.6C95,1.8,95,.93,95.12,0Z"/></g></g></svg>