<svg xmlns="http://www.w3.org/2000/svg" viewBox="0 0 228.54 180.03"><defs><style>.cls-1{fill:#e45025;}</style></defs><title>Asset 6</title><g id="Layer_2" data-name="Layer 2"><g id="Layer_1-2" data-name="Layer 1"><path class="cls-1" d="M127.88,100.74h52.83c-.89,10.83-.31,17-6.68,31.82-8.37,19.53-41.5,47.47-41.5,47.47s56.1-4.34,74.32-27.21a158.33,158.33,0,0,0,9.63-13.4c7.24-11.29,10.83-28.5,11.84-38.68.1-.93.17-1.8.22-2.6V0H127.88Z"/><path class="cls-1" d="M0,100.74H52.84c-.89,10.83-.32,17-6.69,31.82C37.78,152.09,4.65,180,4.65,180S60.76,175.69,79,152.82a156.39,156.39,0,0,0,9.64-13.4c7.23-11.29,10.82-28.5,11.83-38.68.1-.93.17-1.8.22-2.6V0H0Z"/></g></g></svg>